<svg width="16" height="16" viewBox="0 0 16 16" fill="none" xmlns="http://www.w3.org/2000/svg">
<rect width="16" height="16" fill="#EB4944"/>
<rect width="16" height="16" rx="7" fill="white"/>
<path d="M12.2313 0H3.76873C2.76925 0.0001633 1.81075 0.397277 1.10402 1.10402C0.397277 1.81075 0.0001633 2.76925 0 3.76873L0 12.2313C0.0001633 13.2308 0.397277 14.1892 1.10402 14.896C1.81075 15.6027 2.76925 15.9998 3.76873 16H12.2313C13.2308 15.9998 14.1892 15.6027 14.896 14.896C15.6027 14.1892 15.9998 13.2308 16 12.2313V3.76873C15.9998 2.76925 15.6027 1.81075 14.896 1.10402C14.1892 0.397277 13.2308 0.0001633 12.2313 0V0ZM12.7856 5.34237C12.7857 5.48215 12.7582 5.62057 12.7047 5.7497C12.6511 5.87884 12.5727 5.99614 12.4738 6.09489C12.3748 6.19365 12.2574 6.27191 12.1282 6.3252C11.9989 6.37848 11.8605 6.40574 11.7207 6.40542H8.53153V7.46847H11.7207C11.8603 7.46847 11.9985 7.49597 12.1274 7.54941C12.2563 7.60284 12.3735 7.68115 12.4722 7.77987C12.5708 7.87859 12.6491 7.99579 12.7024 8.12476C12.7558 8.25373 12.7832 8.39195 12.7831 8.53153H4.27931V9.59458H12.7831V10.6552H4.27931V11.7207H12.7831C12.7831 12.0025 12.6712 12.2727 12.4719 12.4719C12.2727 12.6712 12.0025 12.7831 11.7207 12.7831H4.27931C4.13974 12.7832 4.00152 12.7558 3.87255 12.7024C3.74358 12.6491 3.62638 12.5708 3.52766 12.4722C3.42894 12.3735 3.35062 12.2563 3.29719 12.1274C3.24376 11.9985 3.21626 11.8603 3.21626 11.7207V8.53153C3.21626 8.24959 3.32826 7.9792 3.52762 7.77983C3.72698 7.58047 3.99737 7.46847 4.27931 7.46847H7.46847V6.40542H4.27931C3.99737 6.40542 3.72698 6.29342 3.52762 6.09406C3.32826 5.8947 3.21626 5.62431 3.21626 5.34237V3.21626H4.27931V5.34237H11.7207V3.21626H12.7831L12.7856 5.34237Z" fill="#EB4944"/>
</svg>
