<svg width="80" height="80" viewBox="0 0 80 80" fill="none" xmlns="http://www.w3.org/2000/svg">
<path d="M61.1564 0H18.8436C13.8462 0.000816501 9.05377 1.98638 5.52008 5.52008C1.98638 9.05377 0.000816501 13.8462 0 18.8436L0 61.1564C0.000816501 66.1538 1.98638 70.9462 5.52008 74.4799C9.05377 78.0136 13.8462 79.9992 18.8436 80H61.1564C66.1538 79.9992 70.9462 78.0136 74.4799 74.4799C78.0136 70.9462 79.9992 66.1538 80 61.1564V18.8436C79.9992 13.8462 78.0136 9.05377 74.4799 5.52008C70.9462 1.98638 66.1538 0.000816501 61.1564 0V0ZM63.9279 26.7118C63.9283 27.4107 63.7908 28.1028 63.5233 28.7485C63.2557 29.3942 62.8634 29.9807 62.3688 30.4745C61.8741 30.9682 61.2869 31.3596 60.6408 31.626C59.9947 31.8924 59.3023 32.0287 58.6034 32.0271H42.6576V37.3424H58.6034C59.3013 37.3424 59.9923 37.4799 60.637 37.747C61.2817 38.0142 61.8675 38.4058 62.3608 38.8994C62.8541 39.393 63.2454 39.9789 63.5121 40.6238C63.7789 41.2687 63.916 41.9598 63.9156 42.6576H21.3966V47.9729H63.9156V53.2758H21.3966V58.6034H63.9156C63.9156 60.0123 63.3559 61.3635 62.3597 62.3597C61.3635 63.3559 60.0123 63.9156 58.6034 63.9156H21.3966C20.6987 63.916 20.0076 63.7789 19.3627 63.5121C18.7179 63.2454 18.1319 62.8541 17.6383 62.3608C17.1447 61.8675 16.7531 61.2817 16.486 60.637C16.2188 59.9923 16.0813 59.3013 16.0813 58.6034V42.6576C16.0813 41.2479 16.6413 39.896 17.6381 38.8992C18.6349 37.9024 19.9869 37.3424 21.3966 37.3424H37.3424V32.0271H21.3966C19.9869 32.0271 18.6349 31.4671 17.6381 30.4703C16.6413 29.4735 16.0813 28.1215 16.0813 26.7118V16.0813H21.3966V26.7118H58.6034V16.0813H63.9156L63.9279 26.7118Z" fill="#EB4944"/>
</svg>
