<svg width="25" height="16" viewBox="0 0 25 16" fill="none" xmlns="http://www.w3.org/2000/svg">
<path d="M21.5275 2.02667C19.8762 0.746649 17.8945 0.106674 15.8028 0L15.4725 0.320023C17.344 0.746648 18.9954 1.59997 20.5367 2.77332C18.6651 1.81332 16.5734 1.17335 14.3715 0.959997C13.711 0.853323 13.1605 0.853323 12.5 0.853323C11.8395 0.853323 11.289 0.853323 10.6285 0.959997C8.4266 1.17335 6.33485 1.81332 4.4633 2.77332C6.00455 1.59997 7.65597 0.746648 9.52752 0.320023L9.19723 0C7.10547 0.106674 5.12383 0.746649 3.47247 2.02667C1.60092 5.44003 0.610092 9.28002 0.5 13.2266C2.15135 14.9333 4.4633 16 6.88535 16C6.88535 16 7.65597 15.1467 8.2064 14.4C6.77525 14.08 5.45412 13.3333 4.5734 12.16C5.34403 12.5866 6.11465 13.0133 6.88535 13.3333C7.87617 13.76 8.867 13.9733 9.85783 14.1867C10.7386 14.2933 11.6193 14.4 12.5 14.4C13.3807 14.4 14.2614 14.2933 15.1422 14.1867C16.133 13.9733 17.1238 13.76 18.1147 13.3333C18.8854 13.0133 19.656 12.5866 20.4266 12.16C19.5459 13.3333 18.2248 14.08 16.7936 14.4C17.344 15.1467 18.1147 16 18.1147 16C20.5367 16 22.8486 14.9333 24.5 13.2266C24.3899 9.28002 23.3991 5.44003 21.5275 2.02667ZM8.867 11.3066C7.76608 11.3066 6.77525 10.3466 6.77525 9.17335C6.77525 8 7.76608 7.04 8.867 7.04C9.96793 7.04 10.9587 8 10.9587 9.17335C10.9587 10.3466 9.96793 11.3066 8.867 11.3066ZM16.133 11.3066C15.0321 11.3066 14.0413 10.3466 14.0413 9.17335C14.0413 8 15.0321 7.04 16.133 7.04C17.2339 7.04 18.2248 8 18.2248 9.17335C18.2248 10.3466 17.2339 11.3066 16.133 11.3066Z" fill="#F9F9F9"/>
</svg>
