<svg width="24" height="24" viewBox="0 0 24 24" fill="none" xmlns="http://www.w3.org/2000/svg">
<path d="M17.5447 7.10372C16.5249 6.63579 15.4313 6.29105 14.2879 6.0936C14.2671 6.08979 14.2463 6.09931 14.2356 6.11836C14.0949 6.3685 13.9392 6.69484 13.8301 6.95133C12.6003 6.76722 11.3768 6.76722 10.1722 6.95133C10.0631 6.68914 9.90166 6.3685 9.76038 6.11836C9.74966 6.09995 9.72886 6.09043 9.70803 6.0936C8.56527 6.29042 7.47171 6.63516 6.45129 7.10372C6.44246 7.10752 6.43488 7.11388 6.42986 7.12213C4.35559 10.221 3.78737 13.2438 4.06612 16.229C4.06738 16.2436 4.07558 16.2576 4.08693 16.2665C5.45547 17.2715 6.78114 17.8817 8.08219 18.2861C8.10301 18.2924 8.12507 18.2848 8.13832 18.2677C8.44608 17.8474 8.72043 17.4042 8.95565 16.9382C8.96953 16.9109 8.95628 16.8785 8.92791 16.8677C8.49275 16.7027 8.0784 16.5014 7.67982 16.2728C7.64829 16.2544 7.64577 16.2093 7.67477 16.1877C7.75865 16.1249 7.84255 16.0595 7.92264 15.9935C7.93713 15.9814 7.95732 15.9789 7.97435 15.9865C10.5929 17.182 13.4277 17.182 16.0153 15.9865C16.0323 15.9782 16.0525 15.9808 16.0677 15.9928C16.1478 16.0589 16.2316 16.1249 16.3161 16.1877C16.3451 16.2093 16.3433 16.2544 16.3117 16.2728C15.9131 16.5058 15.4988 16.7027 15.063 16.8671C15.0346 16.8779 15.022 16.9109 15.0359 16.9382C15.2762 17.4036 15.5505 17.8467 15.8526 18.267C15.8652 18.2848 15.8879 18.2924 15.9087 18.2861C17.2161 17.8817 18.5417 17.2715 19.9103 16.2665C19.9223 16.2576 19.9298 16.2443 19.9311 16.2297C20.2647 12.7784 19.3723 9.78043 17.5655 7.12276C17.5611 7.11388 17.5535 7.10752 17.5447 7.10372ZM9.34668 14.4113C8.55833 14.4113 7.90875 13.6876 7.90875 12.7987C7.90875 11.9098 8.54574 11.1861 9.34668 11.1861C10.1539 11.1861 10.7972 11.9162 10.7846 12.7987C10.7846 13.6876 10.1476 14.4113 9.34668 14.4113ZM14.6632 14.4113C13.8748 14.4113 13.2253 13.6876 13.2253 12.7987C13.2253 11.9098 13.8622 11.1861 14.6632 11.1861C15.4704 11.1861 16.1137 11.9162 16.1011 12.7987C16.1011 13.6876 15.4704 14.4113 14.6632 14.4113Z" fill="white"/>
</svg>
