<svg width="24" height="24" viewBox="0 0 24 24" fill="none" xmlns="http://www.w3.org/2000/svg">
<path d="M20 14.1981V20H16.5561V14.5519C16.5561 13.2075 16.0538 12.2877 14.8341 12.2877C13.9013 12.2877 13.3274 12.9245 13.1121 13.4906C13.0404 13.7028 12.9686 13.9858 12.9686 14.3396V20H9.52466C9.52466 20 9.59641 10.8019 9.52466 9.88208H12.9686V11.2972C13.3991 10.5896 14.2601 9.59906 16.0538 9.59906C18.278 9.59906 20 11.0849 20 14.1981ZM5.93722 5C4.78924 5 4 5.7783 4 6.76887C4 7.75943 4.71749 8.53774 5.86547 8.53774C7.0852 8.53774 7.80269 7.75943 7.80269 6.76887C7.87444 5.70755 7.15695 5 5.93722 5ZM4.21525 20H7.65919V9.88208H4.21525V20Z" fill="white"/>
</svg>
