<svg width="24" height="24" viewBox="0 0 24 24" fill="none" xmlns="http://www.w3.org/2000/svg">
<path d="M20 7.58333C19.4286 7.83333 18.7755 8 18.1225 8.08333C18.7755 7.66667 19.3469 7 19.5918 6.25C18.9388 6.66667 18.2857 6.91667 17.4694 7.08334C16.898 6.41667 16 6 15.102 6C13.3061 6 11.8367 7.5 11.8367 9.33333C11.8367 9.58333 11.8367 9.83333 11.9184 10.0833C9.22449 9.91666 6.77551 8.58333 5.14285 6.58333C4.89795 7.08333 4.73469 7.66666 4.73469 8.25C4.73469 9.41666 5.30612 10.4167 6.20408 11C5.63265 11 5.14285 10.8333 4.73469 10.5833C4.73469 12.1667 5.87754 13.5833 7.34693 13.8333C7.10203 13.9167 6.77551 13.9167 6.44898 13.9167C6.20408 13.9167 6.04081 13.9167 5.79592 13.8333C6.20408 15.1667 7.42857 16.1667 8.89796 16.1667C7.7551 17.0833 6.36735 17.5833 4.81633 17.5833C4.57143 17.5833 4.32653 17.5833 4 17.5C5.46939 18.4167 7.18367 19 9.06122 19C15.102 19 18.3673 13.9167 18.3673 9.5V9.08333C19.0204 8.83333 19.5918 8.24999 20 7.58333Z" fill="white"/>
</svg>
